#N canvas 952 0 958 1076 10;
#X obj 70 38 s msg;
#X obj 160 51 print msg;
#X obj 74 131 r msg;
#N canvas 490 136 1366 675 drum 1;
#N canvas 0 50 450 250 (subpatch) 0;
#X array steps 16 float 3;
#A 0 1.54286 1.62857 1.92857 2.78571 3.42857 1.5 0.728569 1.11428 2.05714
3.12857 4.45714 3.3 1.8 1.62857 1.88571 3.21429;
#X coords 0 6 16 0 200 140 1 0 0;
#X restore 481 284 graph;
#X floatatom 105 629 5 0 0 0 - - -;
#X obj 106 675 + 0.5;
#X obj 106 720 int;
#X floatatom 108 752 5 0 0 0 - - -;
#X obj 106 794 select 0 1 2 3 4 5 6;
#N canvas 0 164 705 729 kick 0;
#X text 311 62 Kick;
#X obj 187 118 inlet;
#X obj 266 119 inlet;
#X obj 188 157 bng 15 250 50 0 empty empty empty 17 7 0 10 -262144
-1 -1;
#X obj 285 204 f;
#X msg 154 203 150 \, 50 \, 70 \, 0;
#X obj 189 264 vline~;
#X obj 188 300 osc~;
#X obj 194 344 *~;
#X obj 193 388 outlet~;
#X obj 266 321 vline~;
#X msg 268 275 \$1 1 0 \, 0 100 1;
#X connect 1 0 3 0;
#X connect 2 0 4 1;
#X connect 3 0 4 0;
#X connect 3 0 5 0;
#X connect 4 0 11 0;
#X connect 5 0 6 0;
#X connect 6 0 7 0;
#X connect 7 0 8 0;
#X connect 8 0 9 0;
#X connect 10 0 8 1;
#X connect 11 0 10 0;
#X restore 34 930 pd kick;
#N canvas 1097 177 630 660 snare 0;
#X obj 124 63 noise~;
#X obj 125 101 lop~ 3000;
#X obj 128 137 hip~ 1000;
#X obj 220 174 osc~ 180;
#X obj 222 212 *~ 0.5;
#X obj 226 257 *~;
#X obj 227 301 outlet~;
#X obj 326 233 *~;
#X obj 321 200 vline~;
#X msg 323 170 \$1 1 0 \, 0 150 1;
#X obj 322 138 f;
#X obj 303 99 inlet;
#X obj 377 95 inlet;
#X connect 0 0 1 0;
#X connect 1 0 2 0;
#X connect 2 0 5 0;
#X connect 4 0 5 0;
#X connect 5 0 6 0;
#X connect 7 0 5 1;
#X connect 8 0 7 0;
#X connect 8 0 7 1;
#X connect 9 0 8 0;
#X connect 10 0 9 0;
#X connect 11 0 10 0;
#X connect 12 0 10 1;
#X restore 152 878 pd snare;
#N canvas 1081 169 633 581 hats 0;
#X obj 236 49 inlet;
#X obj 318 51 inlet;
#X obj 237 83 bng 15 250 50 0 empty empty empty 17 7 0 10 -262144 -1
-1;
#X obj 260 113 f;
#X obj 261 147 t f b;
#X obj 296 188 random 10;
#X obj 296 228 / 20;
#X obj 298 273 + 0.7;
#X obj 267 318 *;
#X obj 63 325 noise~;
#X obj 57 358 hip~ 20000;
#X obj 56 386 hip~ 10000;
#X obj 90 427 *~;
#X msg 165 353 \$1 \, 0 40 1;
#X obj 164 386 vline~;
#X obj 89 466 outlet~;
#X connect 0 0 2 0;
#X connect 1 0 3 1;
#X connect 2 0 3 0;
#X connect 3 0 4 0;
#X connect 4 0 8 0;
#X connect 4 1 5 0;
#X connect 5 0 6 0;
#X connect 6 0 7 0;
#X connect 7 0 8 1;
#X connect 8 0 13 0;
#X connect 9 0 10 0;
#X connect 10 0 11 0;
#X connect 11 0 12 0;
#X connect 12 0 15 0;
#X connect 13 0 14 0;
#X connect 14 0 12 1;
#X restore 300 855 pd hats;
#X floatatom 102 921 5 0 10 0 - - -;
#X floatatom 220 849 5 0 1 0 - - -;
#X floatatom 350 815 5 0 1 0 - - -;
#X obj 151 989 +~;
#X obj 106 887 inlet;
#X obj 265 796 inlet;
#X obj 358 771 inlet;
#X obj 162 1044 outlet~;
#X obj 188 229 inlet;
#X obj 299 206 inlet;
#X obj 243 348 counter;
#X floatatom 244 384 5 0 0 0 - - -;
#X obj 249 414 % 16;
#X floatatom 249 447 5 0 0 0 - - -;
#X msg 33 535 0;
#X msg 80 534 2;
#X msg 124 533 3;
#X msg 164 531 4;
#X msg 204 531 5;
#X msg 241 531 6;
#X msg 276 528 0;
#X msg 314 529 1;
#X msg 349 530 2;
#X msg 383 530 3;
#X msg 418 530 4;
#X msg 455 529 5;
#X msg 490 529 6;
#X msg 527 529 0;
#X msg 562 530 1;
#X msg 600 529 2;
#X obj 209 272 tgl 15 0 empty empty empty 17 7 0 10 -262144 -1 -1 1
1;
#X obj 227 487 sel 0 1 2 3 4 5 6 7 8 9 10 11 12 13 14 15;
#X obj 226 305 metro 500;
#X floatatom 307 256 5 0 0 0 - - -;
#X obj 211 830 / 5;
#X connect 1 0 2 0;
#X connect 2 0 3 0;
#X connect 3 0 4 0;
#X connect 4 0 5 0;
#X connect 5 0 6 0;
#X connect 5 1 7 0;
#X connect 5 2 8 0;
#X connect 5 3 6 0;
#X connect 5 3 7 0;
#X connect 5 4 6 0;
#X connect 5 4 8 0;
#X connect 5 5 7 0;
#X connect 5 5 8 0;
#X connect 5 6 6 0;
#X connect 5 6 7 0;
#X connect 5 6 8 0;
#X connect 6 0 12 0;
#X connect 7 0 12 0;
#X connect 8 0 12 0;
#X connect 9 0 6 1;
#X connect 10 0 7 1;
#X connect 11 0 8 1;
#X connect 12 0 16 0;
#X connect 13 0 9 0;
#X connect 14 0 43 0;
#X connect 15 0 11 0;
#X connect 17 0 39 0;
#X connect 18 0 42 0;
#X connect 19 0 20 0;
#X connect 20 0 21 0;
#X connect 21 0 22 0;
#X connect 22 0 40 0;
#X connect 23 0 1 0;
#X connect 24 0 1 0;
#X connect 25 0 1 0;
#X connect 26 0 1 0;
#X connect 27 0 1 0;
#X connect 28 0 1 0;
#X connect 29 0 1 0;
#X connect 30 0 1 0;
#X connect 31 0 1 0;
#X connect 32 0 1 0;
#X connect 33 0 1 0;
#X connect 34 0 1 0;
#X connect 35 0 1 0;
#X connect 36 0 1 0;
#X connect 37 0 1 0;
#X connect 38 0 1 0;
#X connect 39 0 41 0;
#X connect 40 0 23 0;
#X connect 40 1 24 0;
#X connect 40 2 25 0;
#X connect 40 3 26 0;
#X connect 40 4 27 0;
#X connect 40 5 28 0;
#X connect 40 6 29 0;
#X connect 40 7 30 0;
#X connect 40 8 31 0;
#X connect 40 9 32 0;
#X connect 40 10 33 0;
#X connect 40 11 34 0;
#X connect 40 12 35 0;
#X connect 40 13 36 0;
#X connect 40 14 37 0;
#X connect 40 16 38 0;
#X connect 41 0 19 0;
#X connect 42 0 41 1;
#X connect 43 0 10 0;
#X coords 0 1350 2 1348 0 0 0;
#X restore 144 404 pd drum;
#X floatatom 142 315 5 0 0 0 - - -;
#X floatatom 190 311 5 0 1 0 - - -;
#X floatatom 87 314 5 0 1 0 - - -;
#X floatatom 27 301 5 0 1 0 - - -;
#X text 192 279 snare;
#X text 93 282 Kick;
#X text 144 281 BPM;
#X floatatom 364 270 5 0 0 0 - - -;
#X obj 473 361 osc~;
#X obj 477 483 dac~;
#X obj 472 399 *~;
#X floatatom 501 285 5 0 0 0 - - -;
#X text 240 206 danceability;
#X text 327 206 energy;
#N canvas 1035 216 875 617 piano 0;
#X obj -150 -53 inlet;
#X obj -106 77 pgmout;
#X obj -363 91 makenote;
#X obj -359 141 outlet;
#X obj -274 143 outlet;
#X floatatom -162 29 5 0 0 0 - - -;
#X obj -290 189 print mk1;
#X obj -336 5 bng 15 250 50 0 empty empty empty 17 7 0 10 -262144 -1
-1;
#X obj -218 129 print a;
#X obj -342 -51 inlet;
#X msg -262 75 1000;
#X floatatom -387 54 5 0 0 0 - - -;
#X msg -312 45 200;
#X connect 0 0 5 0;
#X connect 2 0 3 0;
#X connect 2 0 6 0;
#X connect 2 1 4 0;
#X connect 2 1 8 0;
#X connect 5 0 1 0;
#X connect 7 0 12 0;
#X connect 7 0 10 0;
#X connect 7 0 11 0;
#X connect 9 0 7 0;
#X connect 10 0 2 2;
#X connect 11 0 2 0;
#X connect 12 0 2 1;
#X restore 660 306 pd piano;
#X obj 668 367 noteout;
#X obj 755 333 print nout;
#X obj 692 267 print ene;
#X floatatom 566 386 5 0 0 0 - - -;
#X obj 132 486 dac~;
#X obj 64 -17 dumpOSC 15;
#X obj 502 317 / 100;
#X obj 381 310 * 3;
#X floatatom 596 213 5 0 0 0 - - -;
#X obj 151 183 OSCroute /bpm /mode /danceability /energy /valence /button
/clickArea;
#X floatatom 432 292 5 0 0 0 - - -;
#X obj 552 333 *;
#X obj 225 338 *;
#X connect 2 0 28 0;
#X connect 3 0 23 0;
#X connect 3 0 23 1;
#X connect 4 0 3 3;
#X connect 5 0 31 0;
#X connect 7 0 3 1;
#X connect 11 0 26 0;
#X connect 12 0 14 0;
#X connect 14 0 13 0;
#X connect 14 0 13 1;
#X connect 15 0 25 0;
#X connect 18 0 19 0;
#X connect 18 0 20 0;
#X connect 18 1 19 1;
#X connect 24 0 0 0;
#X connect 24 0 1 0;
#X connect 25 0 30 0;
#X connect 26 0 12 0;
#X connect 28 0 4 0;
#X connect 28 1 5 0;
#X connect 28 2 11 0;
#X connect 28 3 15 0;
#X connect 28 4 18 1;
#X connect 28 4 21 0;
#X connect 28 5 27 0;
#X connect 28 5 18 0;
#X connect 28 6 29 0;
#X connect 29 0 30 1;
#X connect 29 0 31 1;
#X connect 30 0 22 0;
#X connect 30 0 14 1;
#X connect 30 0 3 0;
#X connect 31 0 3 2;
